<svg width="26" height="26" viewBox="0 0 26 26" fill="none" xmlns="http://www.w3.org/2000/svg">
<path fill-rule="evenodd" clip-rule="evenodd" d="M0.634602 0.634602C1.48074 -0.211534 2.8526 -0.211534 3.69873 0.634602L13 9.93587L22.3013 0.634602C23.1474 -0.211534 24.5193 -0.211534 25.3654 0.634602C26.2115 1.48074 26.2115 2.8526 25.3654 3.69873L16.0641 13L25.3654 22.3013C26.2115 23.1474 26.2115 24.5193 25.3654 25.3654C24.5193 26.2115 23.1474 26.2115 22.3013 25.3654L13 16.0641L3.69873 25.3654C2.8526 26.2115 1.48074 26.2115 0.634602 25.3654C-0.211534 24.5193 -0.211534 23.1474 0.634602 22.3013L9.93587 13L0.634602 3.69873C-0.211534 2.8526 -0.211534 1.48074 0.634602 0.634602Z" fill="#fff"/>
</svg>
