<svg width="512" height="512" viewBox="0 0 512 512" fill="none" xmlns="http://www.w3.org/2000/svg">
<g clip-path="url(#clip0_36_35)">
<path d="M273.128 520.467C291.23 520.467 307.823 512.924 318.383 502.365C328.942 491.805 336.485 475.212 336.485 457.11V270.057L369.672 218.768C375.706 209.717 378.723 200.666 378.723 188.598C378.723 173.513 372.689 161.445 362.129 150.886C351.57 140.326 337.993 135.801 324.417 134.292L176.584 134.292C149.431 134.292 123.787 156.92 123.787 190.107C123.787 202.174 126.804 211.225 132.838 220.276L167.533 270.057L167.533 454.093C167.533 490.297 196.195 518.958 230.89 517.45L273.128 520.467ZM169.042 196.14C167.533 194.632 167.533 191.615 167.533 188.598C167.533 182.564 172.059 178.039 178.093 178.039L325.925 178.039C331.959 178.039 336.485 182.564 336.485 188.598C336.485 191.615 334.976 193.123 333.468 194.632L301.789 241.395L196.195 241.395L169.042 196.14ZM208.263 455.602L208.263 283.633L292.738 283.633L292.738 455.602C292.738 467.67 283.688 476.72 271.62 476.72H229.382C218.822 478.229 208.263 467.67 208.263 455.602Z" fill="#fff"/>
<path d="M273.128 360.566L273.128 339.447C273.128 327.38 264.077 318.329 252.009 318.329C239.941 318.329 230.89 327.38 230.89 339.447V360.566C230.89 372.634 239.941 381.685 252.009 381.685C262.569 383.194 273.128 372.634 273.128 360.566Z" fill="#fff"/>
</g>
<defs>
<clipPath id="clip0_36_35">
<rect width="512" height="512" fill="white"/>
</clipPath>
</defs>
</svg>
