<svg width="512" height="512" viewBox="0 0 512 512" fill="none" xmlns="http://www.w3.org/2000/svg">
<g clip-path="url(#clip0_36_35)">
<path d="M273.128 520.467C291.23 520.467 307.823 512.924 318.383 502.365C328.942 491.805 336.485 475.212 336.485 457.11V270.057L369.672 218.768C375.706 209.717 378.723 200.666 378.723 188.598C378.723 173.513 372.689 161.445 362.129 150.886C351.57 140.326 337.993 135.801 324.417 134.292L176.584 134.292C149.432 134.292 123.787 156.92 123.787 190.107C123.787 202.174 126.804 211.225 132.838 220.276L167.533 270.057L167.533 454.093C167.533 490.297 196.195 518.958 230.89 517.45L273.128 520.467ZM169.042 196.141C167.533 194.632 167.533 191.615 167.533 188.598C167.533 182.564 172.059 178.039 178.093 178.039L325.925 178.039C331.959 178.039 336.485 182.564 336.485 188.598C336.485 191.615 334.976 193.124 333.468 194.632L301.789 241.395H196.195L169.042 196.141ZM208.263 455.602L208.263 283.633L292.738 283.633L292.738 455.602C292.738 467.67 283.688 476.72 271.62 476.72L229.382 476.72C218.822 478.229 208.263 467.67 208.263 455.602ZM140.381 79.9864L144.906 99.5969C147.923 111.665 159.991 117.699 172.059 114.682C176.584 113.173 178.093 111.665 181.11 108.648C185.635 104.122 188.652 95.0714 187.144 87.5289L182.618 67.9185C178.093 57.359 167.533 49.8165 155.465 52.8335C144.906 57.359 137.364 67.9185 140.381 79.9864ZM267.094 76.9695C271.62 72.444 273.128 67.9185 273.128 61.8845L273.128 40.7656C273.128 28.6976 264.077 19.6467 252.009 19.6467C239.941 19.6467 230.89 28.6976 230.89 40.7656L230.89 61.8845C230.89 73.9525 239.941 83.0034 252.009 83.0034C258.043 83.0034 262.569 81.4949 267.094 76.9695ZM321.4 67.9185L316.874 87.5289C313.857 99.5969 321.4 110.156 331.959 114.682C339.502 116.19 347.044 114.682 353.078 108.648C356.095 105.631 357.604 104.122 359.112 99.5969L363.638 79.9864C366.655 67.9185 359.112 57.359 348.553 52.8335C336.485 49.8166 325.925 57.359 321.4 67.9185Z" fill="#fff"/>
<path d="M273.128 360.566L273.128 339.447C273.128 327.379 264.077 318.328 252.009 318.328C239.941 318.328 230.89 327.379 230.89 339.447V360.566C230.89 372.634 239.941 381.685 252.009 381.685C262.569 383.194 273.128 372.634 273.128 360.566Z" fill="#fff"/>
</g>
<defs>
<clipPath id="clip0_36_35">
<rect width="512" height="512" fill="white"/>
</clipPath>
</defs>
</svg>
