<svg width="45" height="40" viewBox="0 0 45 40" fill="none" xmlns="http://www.w3.org/2000/svg">
<path d="M36.6054 0.445801H7.83454C3.5853 0.445801 0 4.0311 0 8.3246V31.961C0 36.2545 3.5853 39.8398 7.8788 39.8398H36.4284C40.6776 39.8398 44.3072 36.2545 44.3072 31.961V8.3246C44.4842 4.0311 40.8989 0.445801 36.6054 0.445801ZM39.7481 32.1823C39.7481 33.9971 38.4202 35.5463 36.6054 35.5463H7.83454C6.01976 35.5463 4.47056 33.9528 4.47056 32.1823V8.3246C4.47056 6.50982 6.06402 4.96062 7.83454 4.96062H36.3841C38.1989 4.96062 39.7481 6.55408 39.7481 8.3246V32.1823Z" fill="#2a2a2a"/>
<path d="M32.5775 8.10329C31.6923 8.10329 30.7627 8.54592 30.0988 9.20986C29.4348 9.8738 29.2135 10.582 29.2135 11.4673C29.2135 13.282 30.807 14.8313 32.5775 14.8313C34.348 14.8313 35.9415 13.2378 35.9415 11.4673C35.9415 9.69675 34.348 8.10329 32.5775 8.10329ZM29.8775 17.31C29.2135 15.7165 26.9561 15.4952 25.8495 16.8673L22.9282 21.1609C22.0429 22.533 20.0068 22.533 19.1216 21.1609L18.2363 20.0543C17.3511 18.6821 15.315 18.9477 14.4297 20.2756L9.428 28.1544C8.54274 29.7479 9.428 31.7397 11.4641 31.7397H32.5775C34.171 31.7397 35.2776 29.9249 34.6136 28.3757L29.8775 17.31Z" fill="#2a2a2a"/>
</svg>
