<svg width="133" height="196" viewBox="0 0 133 196" fill="none" xmlns="http://www.w3.org/2000/svg">
<path d="M132.011 182.968H131.997V0.455811H0.637735L0.821288 186.653L0.482422 195.511L7.08322 190.43L13.6911 195.511L20.2989 190.43L26.8997 195.511L33.5076 190.43L40.1154 195.511L46.7233 190.43L53.3311 195.511L59.939 190.43L66.5468 195.511L73.1547 190.43L79.7625 195.511L86.3774 190.43L92.9782 195.511L99.5861 190.43L106.194 195.511L112.809 190.43L119.417 195.511L126.032 190.43L132.646 195.511L132.011 182.968Z" fill="#F5F5F5"/>
<path d="M132.011 182.968C132.032 183.301 132.244 187.269 132.696 195.511V195.617L132.618 195.553C130.712 194.094 128.488 192.393 125.996 190.487H126.074C124.097 192.01 121.873 193.725 119.466 195.575L119.424 195.61L119.381 195.575C117.32 193.994 115.11 192.301 112.766 190.501H112.865C110.825 192.074 108.594 193.789 106.257 195.589L106.201 195.631L106.144 195.589C104.118 194.03 101.866 192.308 99.5294 190.515H99.6494C97.6303 192.067 95.3783 193.803 93.0486 195.603L92.985 195.653L92.9215 195.603C90.9095 194.058 88.6434 192.315 86.3137 190.529H86.4478C84.4358 192.074 82.1696 193.824 79.8399 195.617L79.7693 195.674L79.6988 195.617C77.6868 194.072 75.4135 192.329 73.0909 190.543H73.2392C71.2342 192.088 68.9539 193.838 66.6313 195.631L66.5536 195.688L66.476 195.631C64.4711 194.086 62.1908 192.336 59.8681 190.557H60.0305C58.0256 192.102 55.7453 193.86 53.4227 195.638L53.338 195.702L53.2532 195.638C51.2412 194.094 48.9609 192.343 46.6454 190.565H46.8148C44.8028 192.109 42.5225 193.867 40.207 195.645L40.1222 195.709L40.0375 195.645C38.0255 194.101 35.7382 192.343 33.4297 190.565H33.6062C31.5942 192.116 29.3139 193.874 27.0054 195.645L26.9136 195.716L26.8218 195.645C24.8028 194.094 22.5225 192.343 20.214 190.565H20.3975C18.3785 192.116 16.0982 193.874 13.7967 195.645L13.705 195.716L13.6132 195.645C11.5871 194.094 9.30679 192.336 7.00533 190.565H7.19595C5.16982 192.124 2.88954 193.874 0.595151 195.645L0.319824 195.858L0.333941 195.511C0.446896 192.492 0.559853 189.445 0.672808 186.369C0.672808 183.287 0.665745 180.176 0.658685 177.029C0.651626 170.744 0.644567 164.337 0.637507 157.825C0.623388 144.8 0.609269 131.329 0.58809 117.496C0.559851 89.8303 0.524555 60.6908 0.496316 30.6583C0.489256 20.468 0.475136 10.3839 0.468077 0.469954V0.285706H0.65163C48.1632 0.292792 92.7521 0.299878 132.011 0.306965H132.173V0.469954C132.145 54.9507 132.124 100.573 132.11 132.576C132.089 148.577 132.074 161.17 132.067 169.773C132.053 174.067 132.046 177.369 132.046 179.595C132.046 180.707 132.039 181.551 132.032 182.117C132.032 182.684 132.018 182.975 132.018 182.975H132.032C132.032 182.975 132.032 182.975 132.018 182.975C132.018 182.975 132.011 182.684 132.004 182.117C132.004 181.543 131.997 180.7 131.99 179.595C131.99 177.362 131.976 174.067 131.969 169.773C131.961 161.17 131.94 148.577 131.926 132.576C131.912 100.573 131.884 54.9578 131.863 0.469954L132.025 0.632942C92.7592 0.632942 48.1703 0.647116 0.665747 0.654202L0.849299 0.469954C0.856359 10.3839 0.870479 20.4751 0.877539 30.6654C0.905777 60.6979 0.934013 89.8374 0.962251 117.51C0.976371 131.343 0.983433 144.814 0.997552 157.839C0.997552 164.352 1.00461 170.758 1.01167 177.044C1.01167 180.19 1.01167 183.301 1.01167 186.383C0.898714 189.466 0.778701 192.513 0.665747 195.532L0.404542 195.397C2.70599 193.626 4.98626 191.875 7.01239 190.316L7.11122 190.246L7.21006 190.316C9.51151 192.088 11.7918 193.846 13.8109 195.397H13.6202C15.9288 193.626 18.209 191.868 20.2281 190.316L20.3199 190.246L20.4117 190.316C22.7202 192.095 25.0004 193.846 27.0195 195.397H26.8359C29.1445 193.626 31.4247 191.868 33.4438 190.316L33.5356 190.246L33.6273 190.316C35.9359 192.095 38.2232 193.853 40.2352 195.397H40.0587C42.3743 193.619 44.6545 191.868 46.6666 190.316L46.7513 190.253L46.836 190.316C49.1516 192.102 51.4318 193.853 53.4438 195.397H53.2815C55.6041 193.619 57.8844 191.861 59.8893 190.324L59.967 190.26L60.0446 190.324C62.3673 192.109 64.6405 193.867 66.6525 195.405H66.4972C68.8198 193.619 71.1001 191.868 73.1121 190.331L73.1827 190.274L73.2533 190.331C75.5759 192.124 77.8491 193.874 79.8611 195.419H79.7199C82.0496 193.633 84.3228 191.89 86.3348 190.345L86.4054 190.295L86.469 190.345C88.7987 192.138 91.0578 193.881 93.0698 195.433H92.9427C95.2794 193.64 97.5315 191.911 99.5506 190.359L99.607 190.316L99.6635 190.359C102 192.159 104.245 193.888 106.271 195.447H106.158C108.495 193.654 110.733 191.939 112.773 190.373L112.823 190.338L112.872 190.373C115.209 192.173 117.419 193.874 119.473 195.461H119.381C121.789 193.612 124.019 191.904 126.003 190.387L126.038 190.359L126.074 190.387C128.559 192.308 130.775 194.009 132.682 195.475L132.604 195.518C132.216 187.276 132.032 183.308 132.018 182.968H132.011Z" fill="#263238"/>
<path d="M29.0386 79.6683V83.7005H33.0555V79.6683V75.6361H29.0386V79.6683Z" fill="#263238"/>
<path d="M33.0555 55.4822H29.0386V59.5144H33.0555V55.4822Z" fill="#263238"/>
<path d="M57.8705 99.8647H53.8535V103.897H57.8705V99.8647Z" fill="#263238"/>
<path d="M33.0555 63.5395V67.5717H29.0386V71.6039H33.0555V75.6361H37.0725H41.0894V79.6683H45.1064V75.6361H49.1233V71.6039V67.5717H45.1064V71.6039H41.0894H37.0725V67.5717V63.5395V59.5144H33.0555V63.5395Z" fill="#263238"/>
<path d="M41.0897 55.4822H37.0728V59.5144H41.0897H45.1067V55.4822H41.0897Z" fill="#263238"/>
<path d="M59.1622 87.8886H61.3154V83.8564H59.1622H57.002V87.8886H59.1622Z" fill="#263238"/>
<path d="M49.1234 59.5144H45.1064V63.5466H49.1234V59.5144Z" fill="#263238"/>
<path d="M77.2352 75.6361H73.2183V79.6683H77.2352V75.6361Z" fill="#263238"/>
<path d="M81.245 31.2961H77.228V35.3283H81.245V31.2961Z" fill="#263238"/>
<path d="M57.1504 63.5395V59.5144H61.1673V55.4822H57.1504V51.45H53.1334V55.4822H49.1235V59.5144H53.1334V63.5395V67.5717V71.6039V75.6361H57.1504V71.6039V67.5717H61.1673V63.5395H57.1504Z" fill="#263238"/>
<path d="M77.2282 103.854H81.2451V99.8222H77.2282H73.2183V103.854H77.2282Z" fill="#263238"/>
<path d="M73.2181 31.2961H69.2012V35.3283H73.2181V31.2961Z" fill="#263238"/>
<path d="M72.2083 63.5466V59.5144H68.1984V55.4822H64.1815V59.5144V63.5466H60.1646V67.5717H64.1815H68.1984V63.5466H72.2083Z" fill="#263238"/>
<path d="M94.8773 55.4822H90.8604V59.5144H94.8773V55.4822Z" fill="#263238"/>
<path d="M53.2533 75.6361H49.2363V79.6683H53.2533V75.6361Z" fill="#263238"/>
<path d="M69.2009 51.45V47.4178H73.2178V43.3856H77.2277H81.2447V39.3534H77.2277V35.3283H73.2178V39.3534H69.2009V43.3856H65.1839V47.4178H61.167V51.45H65.1839H69.2009Z" fill="#263238"/>
<path d="M69.2009 79.6683V75.6361H73.2178V71.6039H69.2009H65.1839V75.6361H61.167V79.6683H65.1839H69.2009Z" fill="#263238"/>
<path d="M81.245 95.7901V91.7578H77.2281H73.2182V87.7256H69.2012V91.7578H65.1843V95.7901H61.1673H57.1504V99.8223H61.1673H65.1843H69.2012V95.7901H73.2182V99.8223H77.2281V95.7901H81.245Z" fill="#263238"/>
<path d="M65.1842 35.3283V31.2961H61.1672H57.1503V35.3283H53.1333V39.3534H57.1503H61.1672V35.3283H65.1842Z" fill="#263238"/>
<path d="M65.1839 39.3534H61.167V43.3856H65.1839V39.3534Z" fill="#263238"/>
<path d="M75.223 55.4822H71.2061V59.5144V63.5395V67.5717H75.223H79.24V63.5395H75.223V59.5144H79.24V55.4822H83.2569V51.45H79.24V47.4178H75.223V51.45V55.4822Z" fill="#263238"/>
<path d="M61.1673 43.3856H57.1504V47.4178H61.1673V43.3856Z" fill="#263238"/>
<path d="M73.2183 83.7005V87.7327H77.2282H81.2451V83.7005H85.2621H89.279V79.6683H85.2621H81.2451H77.2282V83.7005H73.2183Z" fill="#263238"/>
<path d="M94.8773 67.5717H90.8604V71.6039H94.8773V67.5717Z" fill="#263238"/>
<path d="M81.245 71.6039H77.228V75.6361H81.245V71.6039Z" fill="#263238"/>
<path d="M91.2837 59.5144H87.2738H83.2568V63.5395H87.2738V67.5717H91.2837V63.5395V59.5144Z" fill="#263238"/>
<path d="M89.2787 71.6039H85.2617V75.6361H89.2787V71.6039Z" fill="#263238"/>
<path d="M45.1067 95.868H57.1575V79.6613H41.0121V83.6935H37.0728V87.7257H41.0121V91.7579H37.0728V95.7901H41.0121V95.868H41.0897V99.8223H37.0728V107.887H41.0897V103.854H45.1067V95.868ZM54.0654 82.7651V92.8421H44.0265V82.7651H54.0654Z" fill="#263238"/>
<path d="M97.3127 79.6683H101.323V75.6361H97.3127H93.2958H89.2788V79.6683H93.2958H97.3127Z" fill="#263238"/>
<path d="M97.3125 63.5395H101.322V59.5144V55.4822H97.3125V59.5144V63.5395Z" fill="#263238"/>
<path d="M65.3324 83.8564H61.3154V87.8886V91.9208H65.3324V87.8886V83.8564Z" fill="#263238"/>
<path d="M105.34 79.6683H101.323V83.7005H105.34V79.6683Z" fill="#263238"/>
<path d="M105.34 71.6039V67.5717H101.323V71.6039V75.6361H105.34V71.6039Z" fill="#263238"/>
<path d="M33.0555 99.8222H29.0386V103.854V107.887H33.0555V103.854V99.8222Z" fill="#263238"/>
<path d="M105.339 51.45V31.2961H85.2617V51.45H105.339ZM88.2691 48.4241V34.3149H102.325V48.4241H88.2691Z" fill="#263238"/>
<path d="M99.3176 37.3408H91.2837V45.4052H99.3176V37.3408Z" fill="#263238"/>
<path d="M105.339 87.7327H85.2617V107.887H105.339V87.7327ZM88.2691 104.868V90.7586H102.325V104.868H88.2691Z" fill="#263238"/>
<path d="M99.3176 93.7775H91.2837V101.842H99.3176V93.7775Z" fill="#263238"/>
<path d="M28.9893 31.2961V51.45H49.067V31.2961H28.9893ZM46.0595 34.322V48.4312H32.0037V34.322H46.0595Z" fill="#263238"/>
<path d="M43.052 37.3408H35.0181V45.4052H43.052V37.3408Z" fill="#263238"/>
<path d="M23.264 45.3484V31.0338C23.264 29.7015 23.49 28.433 24.3936 27.3842C25.4102 26.2079 26.8009 25.7614 28.3046 25.7614H43.2994C43.8783 25.7614 43.8783 24.8615 43.2994 24.8615H28.467C27.1963 24.8615 25.982 25.0528 24.8948 25.7685C23.3064 26.8173 22.4028 28.5748 22.3675 30.4668C22.3251 32.8196 22.3675 35.1793 22.3675 37.5391V45.3484C22.3675 45.9295 23.264 45.9295 23.264 45.3484Z" fill="#FF725E"/>
<path d="M41.9862 114.69H27.7256C26.3984 114.69 25.1347 114.463 24.0899 113.556C22.918 112.535 22.4732 111.139 22.4732 109.63V94.5782C22.4732 93.9971 21.5767 93.9971 21.5767 94.5782V109.467C21.5767 110.742 21.7673 111.961 22.4803 113.053C23.5251 114.647 25.2759 115.554 27.1609 115.59C29.5047 115.632 31.8555 115.59 34.2064 115.59H41.9862C42.5651 115.59 42.5651 114.69 41.9862 114.69Z" fill="#FF725E"/>
<path d="M110.635 94.4365V108.751C110.635 110.083 110.409 111.352 109.505 112.401C108.488 113.577 107.098 114.023 105.594 114.023H90.5992C90.0203 114.023 90.0203 114.923 90.5992 114.923H105.432C106.702 114.923 107.917 114.732 109.004 114.016C110.592 112.968 111.496 111.21 111.531 109.318C111.573 106.965 111.531 104.606 111.531 102.246V94.4365C111.531 93.8554 110.635 93.8554 110.635 94.4365Z" fill="#FF725E"/>
<path d="M90.8604 25.7545H105.121C106.448 25.7545 107.712 25.9812 108.757 26.8883C109.929 27.9087 110.373 29.3048 110.373 30.8142V45.8658C110.373 46.4469 111.27 46.4469 111.27 45.8658V30.9772C111.27 29.7016 111.079 28.4827 110.366 27.3914C109.321 25.797 107.571 24.8899 105.686 24.8545C103.342 24.8119 100.991 24.8545 98.6402 24.8545H90.8604C90.2815 24.8545 90.2815 25.7545 90.8604 25.7545Z" fill="#FF725E"/>
<path d="M30.4434 137.253L31.467 134.943C32.4412 135.588 33.832 136.034 35.1027 136.034C36.3735 136.034 36.8959 135.673 36.8959 135.134C36.8959 133.377 30.6269 134.659 30.6269 130.549C30.6269 128.572 32.2365 126.963 35.5122 126.963C36.9453 126.963 38.4279 127.297 39.515 127.927L38.5549 130.252C37.496 129.685 36.4582 129.401 35.4981 129.401C34.192 129.401 33.719 129.841 33.719 130.4C33.719 132.094 39.9739 130.826 39.9739 134.907C39.9739 136.835 38.3643 138.479 35.0886 138.479C33.2743 138.479 31.4811 137.99 30.4434 137.26V137.253Z" fill="#FF725E"/>
<path d="M40.835 132.718C40.835 129.352 43.4047 126.963 46.8992 126.963C48.9324 126.963 50.5702 127.708 51.6363 129.047L49.6525 130.847C48.9606 130.011 48.1064 129.55 47.0545 129.55C45.2402 129.55 43.9836 130.811 43.9836 132.711C43.9836 134.61 45.2402 135.871 47.0545 135.871C48.1064 135.871 48.9606 135.411 49.6525 134.574L51.6363 136.374C50.5632 137.721 48.9253 138.465 46.8992 138.465C43.4047 138.465 40.835 136.077 40.835 132.711V132.718Z" fill="#FF725E"/>
<path d="M60.2282 136.098H55.5688L54.7005 138.245H51.5166L56.3807 127.176H59.4517L64.337 138.245H61.0895L60.2212 136.098H60.2282ZM59.3175 133.788L57.8985 130.244L56.4795 133.788H59.3175Z" fill="#FF725E"/>
<path d="M75.7099 127.183V138.252H73.1402L68.2761 132.356V138.252H65.2192V127.183H67.789L72.6531 133.079V127.183H75.7099Z" fill="#FF725E"/>
<path d="M53.1048 151.879C53.1048 157.648 48.7701 161.234 41.8658 161.234H37.4605V167.874H30.3091V142.49H41.8728C48.7701 142.49 53.1118 146.083 53.1118 151.879H53.1048ZM45.8757 151.879C45.8757 149.52 44.3931 148.145 41.4351 148.145H37.4605V155.579H41.4351C44.4002 155.579 45.8757 154.204 45.8757 151.879Z" fill="#FF725E"/>
<path d="M72.2577 162.941H61.5623L59.5785 167.874H52.2788L63.4401 142.49H70.4857L81.6894 167.874H74.2485L72.2577 162.941ZM70.1609 157.648L66.9064 149.527L63.6519 157.648H70.1539H70.1609Z" fill="#FF725E"/>
<path d="M95.6675 158.775V167.881H88.5161V158.668L78.8726 142.49H86.4264L92.4271 152.574L98.4278 142.49H105.367L95.6816 158.775H95.6675Z" fill="#FF725E"/>
<path d="M85.5508 128.558H81.7739V127.183H90.895V128.558H87.1181V138.245H85.5579V128.558H85.5508Z" fill="#FF725E"/>
<path d="M91.5518 132.718C91.5518 129.479 94.0438 127.056 97.4254 127.056C100.807 127.056 103.271 129.458 103.271 132.718C103.271 135.977 100.786 138.38 97.4254 138.38C94.065 138.38 91.5518 135.963 91.5518 132.718ZM101.696 132.718C101.696 130.266 99.8681 128.466 97.4254 128.466C94.9828 128.466 93.1261 130.266 93.1261 132.718C93.1261 135.17 94.9545 136.97 97.4254 136.97C99.8963 136.97 101.696 135.17 101.696 132.718Z" fill="#FF725E"/>
</svg>
