<svg width="512" height="512" viewBox="0 0 512 512" fill="none" xmlns="http://www.w3.org/2000/svg">
<path d="M182.36 119.253H59.6267V241.987H182.36V119.253ZM157.813 217.44H84.1734V143.8H157.813V217.44Z" fill="#fff"/>
<path d="M108.72 168.347H133.267V192.893H108.72V168.347ZM329.64 119.253V241.987H452.373V119.253H329.64ZM427.827 217.44H354.187V143.8H427.827V217.44Z" fill="#fff"/>
<path d="M378.733 168.347H403.28V192.893H378.733V168.347ZM59.6267 512H182.36V389.267H59.6267V512ZM84.1734 413.813H157.813V487.453H84.1734V413.813Z" fill="#fff"/>
<path d="M108.72 438.36H133.267V462.907H108.72V438.36ZM256 119.253H305.093V143.8H256V119.253ZM256 217.44H280.547V192.893H305.093V168.347H231.453V143.8H206.907V192.893H256V217.44ZM206.907 217.44H231.453V241.987H206.907V217.44ZM305.093 241.987H280.547V266.533H206.907V291.08H305.093V241.987ZM84.1734 340.173H108.72V315.627H84.1734V266.533H59.6267V364.72H84.1734V340.173ZM108.72 266.533H133.267V291.08H108.72V266.533Z" fill="#fff"/>
<path d="M206.907 364.72H256V340.173H231.453V315.627H182.36V266.533H157.813V315.627H133.267V364.72H157.813V340.173H206.907V364.72ZM280.547 315.627H305.093V364.72H280.547V315.627ZM280.547 389.267H206.907V413.813H256V487.453H206.907V512H280.547V487.453H329.64V462.907H280.547V389.267Z" fill="#fff"/>
<path d="M206.907 438.36H231.453V462.907H206.907V438.36ZM305.093 389.267H329.64V438.36H305.093V389.267ZM427.827 438.36H354.187V512H378.733V462.907H427.827V438.36Z" fill="#fff"/>
<path d="M403.28 487.453H452.373V512H403.28V487.453ZM427.827 389.267H452.373V413.813H427.827V389.267ZM354.187 413.813H378.733V340.173H329.64V364.72H354.187V413.813ZM403.28 291.08H378.733V266.533H354.187V291.08H329.64V315.627H427.827V291.08H452.373V266.533H403.28V291.08ZM403.28 340.173H452.373V364.72H403.28V340.173Z" fill="#fff"/>
</svg>
